<svg width="34" height="34" viewBox="0 0 34 34" fill="none" xmlns="http://www.w3.org/2000/svg">
<g id="Camera_fill">
<path id="Subtract" fill-rule="evenodd" clip-rule="evenodd" d="M6.87664 11.3333C5.42599 11.3333 4.25 12.5093 4.25 13.9599V22.3333C4.25 25.1617 4.25 26.5759 5.12868 27.4546C6.00736 28.3333 7.42157 28.3333 10.25 28.3333H23.75C26.5784 28.3333 27.9926 28.3333 28.8713 27.4546C29.75 26.5759 29.75 25.1617 29.75 22.3333V13.9599C29.75 12.5093 28.574 11.3333 27.1234 11.3333C26.1285 11.3333 25.2189 10.7712 24.774 9.88132L23.6111 7.55551C23.2315 6.79639 23.0418 6.41682 22.7417 6.15635C22.5789 6.015 22.3943 5.90091 22.1951 5.8185C21.8279 5.66663 21.4036 5.66663 20.5548 5.66663H13.4452C12.5964 5.66663 12.1721 5.66663 11.8049 5.8185C11.6057 5.90091 11.4211 6.015 11.2583 6.15635C10.9582 6.41682 10.7685 6.79639 10.3889 7.55551L9.22599 9.88132C8.78105 10.7712 7.87154 11.3333 6.87664 11.3333ZM20.6667 18.4166C20.6667 20.4417 19.025 22.0833 17 22.0833C14.975 22.0833 13.3333 20.4417 13.3333 18.4166C13.3333 16.3916 14.975 14.75 17 14.75C19.025 14.75 20.6667 16.3916 20.6667 18.4166ZM22.6667 18.4166C22.6667 21.5462 20.1296 24.0833 17 24.0833C13.8704 24.0833 11.3333 21.5462 11.3333 18.4166C11.3333 15.287 13.8704 12.75 17 12.75C20.1296 12.75 22.6667 15.287 22.6667 18.4166Z" fill="white"/>
</g>
</svg>
