<svg width="29" height="29" viewBox="0 0 29 29" fill="none" xmlns="http://www.w3.org/2000/svg">
<g id="Chat_alt_3">
<g id="Union">
<path fill-rule="evenodd" clip-rule="evenodd" d="M23.352 6.98133C24.1666 8.20041 24.1666 9.89747 24.1666 13.2916C24.1666 16.6857 24.1666 18.3828 23.352 19.6018C22.9994 20.1296 22.5463 20.5827 22.0185 20.9354C20.9535 21.6469 19.5238 21.7369 16.9166 21.7483V21.7499L15.3943 24.7944C15.0258 25.5314 13.974 25.5314 13.6055 24.7944L12.0833 21.7499V21.7483C9.47603 21.7369 8.0463 21.6469 6.98133 20.9354C6.45358 20.5827 6.00045 20.1296 5.64782 19.6018C4.83325 18.3828 4.83325 16.6857 4.83325 13.2916C4.83325 9.89747 4.83325 8.20041 5.64782 6.98133C6.00045 6.45358 6.45358 6.00045 6.98133 5.64782C8.20041 4.83325 9.89747 4.83325 13.2916 4.83325H15.7083C19.1024 4.83325 20.7994 4.83325 22.0185 5.64782C22.5463 6.00045 22.9994 6.45358 23.352 6.98133Z" fill="#D9D9D9"/>
<path d="M23.352 6.98133L21.2733 8.37025V8.37025L23.352 6.98133ZM23.352 19.6018L21.2733 18.2129L21.2733 18.2129L23.352 19.6018ZM22.0185 20.9354L23.4074 23.014H23.4074L22.0185 20.9354ZM16.9166 21.7483L16.9057 19.2483C15.5292 19.2543 14.4166 20.3718 14.4166 21.7483H16.9166ZM16.9166 21.7499L19.1527 22.868C19.3262 22.5208 19.4166 22.138 19.4166 21.7499H16.9166ZM15.3943 24.7944L17.6304 25.9124L17.6304 25.9124L15.3943 24.7944ZM13.6055 24.7944L11.3694 25.9124L11.3694 25.9124L13.6055 24.7944ZM12.0833 21.7499H9.58325C9.58325 22.138 9.67361 22.5208 9.84718 22.868L12.0833 21.7499ZM12.0833 21.7483H14.5833C14.5833 20.3718 13.4706 19.2543 12.0942 19.2483L12.0833 21.7483ZM6.98133 20.9354L8.37025 18.8567L8.37025 18.8567L6.98133 20.9354ZM5.64782 19.6018L7.72649 18.2129L7.72649 18.2129L5.64782 19.6018ZM5.64782 6.98133L7.72649 8.37025L7.72649 8.37025L5.64782 6.98133ZM6.98133 5.64782L8.37025 7.72649L8.37025 7.72649L6.98133 5.64782ZM22.0185 5.64782L23.4074 3.56914V3.56914L22.0185 5.64782ZM26.6666 13.2916C26.6666 11.6466 26.6696 10.2246 26.5519 9.06781C26.43 7.86922 26.1582 6.68119 25.4307 5.5924L21.2733 8.37025C21.3604 8.50055 21.4959 8.77059 21.5776 9.57383C21.6636 10.4189 21.6666 11.5425 21.6666 13.2916H26.6666ZM25.4307 20.9908C26.1582 19.902 26.43 18.714 26.5519 17.5154C26.6696 16.3586 26.6666 14.9366 26.6666 13.2916H21.6666C21.6666 15.0407 21.6636 16.1643 21.5776 17.0093C21.4959 17.8126 21.3604 18.0826 21.2733 18.2129L25.4307 20.9908ZM23.4074 23.014C24.2082 22.479 24.8957 21.7915 25.4307 20.9908L21.2733 18.2129C21.1031 18.4677 20.8844 18.6864 20.6296 18.8567L23.4074 23.014ZM16.9275 24.2482C18.2192 24.2426 19.385 24.2195 20.3882 24.0808C21.4316 23.9366 22.4567 23.6493 23.4074 23.014L20.6296 18.8567C20.5154 18.933 20.2931 19.0464 19.7036 19.1279C19.0738 19.215 18.2212 19.2426 16.9057 19.2483L16.9275 24.2482ZM19.4166 21.7499V21.7483H14.4166V21.7499H19.4166ZM17.6304 25.9124L19.1527 22.868L14.6805 20.6319L13.1583 23.6764L17.6304 25.9124ZM11.3694 25.9124C12.6593 28.4921 16.3406 28.4921 17.6304 25.9124L13.1583 23.6764C13.7111 22.5708 15.2888 22.5708 15.8416 23.6764L11.3694 25.9124ZM9.84718 22.868L11.3694 25.9124L15.8416 23.6764L14.3193 20.6319L9.84718 22.868ZM9.58325 21.7483V21.7499H14.5833V21.7483H9.58325ZM5.5924 23.014C6.54318 23.6493 7.56826 23.9366 8.61162 24.0808C9.61481 24.2195 10.7806 24.2426 12.0723 24.2482L12.0942 19.2483C10.7787 19.2426 9.926 19.215 9.29627 19.1279C8.70671 19.0464 8.48445 18.933 8.37025 18.8567L5.5924 23.014ZM3.56914 20.9908C4.10417 21.7915 4.79167 22.479 5.5924 23.014L8.37025 18.8567C8.11548 18.6864 7.89673 18.4677 7.72649 18.2129L3.56914 20.9908ZM2.33325 13.2916C2.33325 14.9366 2.33023 16.3586 2.44791 17.5154C2.56984 18.7139 2.84164 19.902 3.56914 20.9908L7.72649 18.2129C7.63943 18.0826 7.50395 17.8126 7.42224 17.0093C7.33627 16.1643 7.33325 15.0407 7.33325 13.2916H2.33325ZM3.56914 5.5924C2.84164 6.68119 2.56984 7.86922 2.44791 9.06781C2.33023 10.2246 2.33325 11.6466 2.33325 13.2916H7.33325C7.33325 11.5425 7.33627 10.4189 7.42224 9.57383C7.50395 8.77059 7.63943 8.50055 7.72649 8.37025L3.56914 5.5924ZM5.5924 3.56914C4.79168 4.10417 4.10417 4.79168 3.56914 5.5924L7.72649 8.37025C7.89673 8.11548 8.11548 7.89673 8.37025 7.72649L5.5924 3.56914ZM13.2916 2.33325C11.6466 2.33325 10.2246 2.33023 9.06781 2.44791C7.86922 2.56984 6.68119 2.84164 5.5924 3.56914L8.37025 7.72649C8.50055 7.63943 8.77059 7.50395 9.57383 7.42224C10.4189 7.33627 11.5425 7.33325 13.2916 7.33325V2.33325ZM15.7083 2.33325H13.2916V7.33325H15.7083V2.33325ZM23.4074 3.56914C22.3186 2.84164 21.1306 2.56984 19.932 2.44791C18.7752 2.33023 17.3533 2.33325 15.7083 2.33325V7.33325C17.4573 7.33325 18.581 7.33627 19.426 7.42224C20.2292 7.50395 20.4993 7.63943 20.6296 7.72649L23.4074 3.56914ZM25.4307 5.5924C24.8957 4.79168 24.2082 4.10417 23.4074 3.56914L20.6296 7.72649C20.8844 7.89673 21.1031 8.11548 21.2733 8.37025L25.4307 5.5924Z" fill="#D9D9D9"/>
</g>
</g>
</svg>
