<svg width="55" height="55" viewBox="0 0 55 55" fill="none" xmlns="http://www.w3.org/2000/svg">
<path d="M38.958 27.5V6.87504C38.958 6.26725 38.7166 5.68436 38.2868 5.25459C37.857 4.82482 37.2741 4.58337 36.6663 4.58337H6.87467C6.26689 4.58337 5.68399 4.82482 5.25422 5.25459C4.82445 5.68436 4.58301 6.26725 4.58301 6.87504V38.9584L13.7497 29.7917H36.6663C37.2741 29.7917 37.857 29.5503 38.2868 29.1205C38.7166 28.6907 38.958 28.1078 38.958 27.5ZM48.1247 13.75H43.5413V34.375H13.7497V38.9584C13.7497 39.5662 13.9911 40.1491 14.4209 40.5788C14.8507 41.0086 15.4336 41.25 16.0413 41.25H41.2497L50.4163 50.4167V16.0417C50.4163 15.4339 50.1749 14.851 49.7451 14.4213C49.3154 13.9915 48.7325 13.75 48.1247 13.75Z" fill="#B9B9B9"/>
</svg>
