<svg width="40" height="40" viewBox="0 0 40 40" fill="none" xmlns="http://www.w3.org/2000/svg">
<path d="M26.563 22.5668L25.5 22.7435V22.1667H30.4333V24.5H27.3916L27.1382 22.9779L27.0561 22.4848L26.563 22.5668ZM26.2339 23.6352L26.3779 24.5H25.5V23.7572L26.2339 23.6352ZM24.5 23.9235V25V25.5H25H26.5444L27.4114 30.7074L25.111 31.0912L23.9321 24.0179L24.5 23.9235ZM24.5 22.9096L23.879 23.0129C23.9245 22.8536 24.0034 22.7057 24.1106 22.5793C24.2177 22.4528 24.3504 22.3507 24.5 22.2796V22.9096ZM35.417 19.6138C35.4596 20.1079 35.4203 20.6067 35.2996 21.0901C35.1384 21.7359 34.8359 22.3379 34.4139 22.8527C33.9919 23.3675 33.461 23.7823 32.8594 24.0671C32.4091 24.2803 31.9276 24.4168 31.4347 24.472L31.4336 22.1083C31.5802 22.0735 31.7232 22.0235 31.8602 21.9587C32.1501 21.8216 32.4059 21.622 32.6092 21.3741C32.8125 21.1262 32.9583 20.8363 33.036 20.5252C33.0727 20.3786 33.0943 20.2284 33.1001 20.0772L35.417 19.6138ZM35.2483 18.6278L32.9622 19.085L31.1583 10.0656L33.4444 9.60835L35.2483 18.6278ZM33.2211 8.63322L30.9049 9.09644C30.7683 8.79874 30.5651 8.53382 30.3082 8.32355C30.0516 8.1134 29.7519 7.96646 29.4333 7.89126V5.52782C30.2936 5.62393 31.1118 5.96674 31.7867 6.52004C32.4616 7.07335 32.9582 7.80847 33.2211 8.63322ZM28.4333 7.83333H10.5V5.5H28.4333V7.83333ZM6.81802 6.81802C7.54323 6.09281 8.49049 5.64069 9.5 5.52785V7.89181C9.11238 7.98375 8.75422 8.18165 8.46794 8.46794C8.18165 8.75422 7.98375 9.11238 7.89181 9.5H5.52785C5.64069 8.49049 6.09281 7.54323 6.81802 6.81802ZM5.5 10.5H7.83333V21.1667H6.66667H6.16667V21.6667V22.8333H5.5V10.5ZM5.61257 23.8333H6.16667V24.3874C6.04715 24.3307 5.93703 24.2536 5.84171 24.1583C5.74639 24.063 5.66926 23.9529 5.61257 23.8333ZM12.7167 24.5H7.16667V23.8333H8.33333H8.83333V23.3333V22.1667H12.7167V24.5ZM7.16667 22.1667H7.83333V22.8333H7.16667V22.1667ZM13.7167 24.5584V22.1946C14.2834 22.258 14.8344 22.4287 15.3399 22.6993C15.845 22.9696 16.2924 23.3331 16.6593 23.7691L14.6931 25.0807C14.5568 24.9538 14.4042 24.8446 14.2388 24.7561C14.0734 24.6676 13.8978 24.6014 13.7167 24.5584ZM27.5319 31.7011C27.5289 31.943 27.495 32.1842 27.4304 32.4188C27.3212 32.8154 27.1269 33.1836 26.8611 33.4975C26.5952 33.8115 26.2642 34.0639 25.8909 34.237C25.6703 34.3393 25.438 34.4125 25.2 34.4553V32.0902L27.5319 31.7011ZM21.4585 30.8569C21.7617 31.2037 22.1259 31.494 22.5344 31.7127C22.943 31.9315 23.3866 32.0737 23.8433 32.1338V34.4797C23.0018 34.4112 22.1814 34.1705 21.4338 33.7704C20.686 33.3702 20.0294 32.8211 19.5054 32.159L21.4585 30.8569ZM20.8766 30.043L18.9338 31.3382L15.2967 25.8804L17.2387 24.5861L20.8766 30.043Z" fill="#BABABA" stroke="#BABABA"/>
<path d="M13.333 23.3334V6.66675V23.3334Z" fill="#BABABA"/>
<path d="M13.333 23.3334V6.66675" stroke="#BABABA" stroke-width="2"/>
</svg>
