<svg width="177" height="32" viewBox="0 0 177 32" fill="none" xmlns="http://www.w3.org/2000/svg">
<g filter="url(#filter0_d_186_72)">
<path d="M25.03 23.55C25.15 23.65 25.18 23.75 25.12 23.85C25.06 23.93 24.95 23.97 24.79 23.97H20.56C20.38 23.97 20.14 23.97 19.84 23.97C19.56 23.97 19.26 23.96 18.94 23.94C18.62 23.92 18.32 23.89 18.04 23.85C17.76 23.79 17.54 23.72 17.38 23.64C17.2 23.56 17.16 23.45 17.26 23.31C17.38 23.15 17.52 23.1 17.68 23.16C17.88 23.24 18.04 23.28 18.16 23.28C18.38 23.28 18.56 23.18 18.7 22.98C18.84 22.78 18.95 22.54 19.03 22.26C19.13 21.98 19.19 21.7 19.21 21.42C19.25 21.12 19.27 20.87 19.27 20.67V12.42H7.33V20.58C7.33 21.06 7.36 21.48 7.42 21.84C7.48 22.18 7.59 22.46 7.75 22.68C7.93 22.9 8.17 23.07 8.47 23.19C8.79 23.29 9.2 23.32 9.7 23.28C9.9 23.26 10.01 23.34 10.03 23.52C10.05 23.7 9.96 23.8 9.76 23.82C8.56 23.88 7.35 23.91 6.13 23.91C4.87 23.91 3.63 23.88 2.41 23.82C2.23 23.8 2.13 23.72 2.11 23.58C2.11 23.42 2.2 23.32 2.38 23.28C2.82 23.2 3.16 23.11 3.4 23.01C3.64 22.91 3.82 22.77 3.94 22.59C4.06 22.41 4.13 22.17 4.15 21.87C4.17 21.57 4.18 21.17 4.18 20.67V4.05C4.18 3.71 4.14 3.44 4.06 3.24C4 3.04 3.91 2.9 3.79 2.82C3.67 2.72 3.53 2.66 3.37 2.64C3.23 2.6 3.09 2.57 2.95 2.55C2.67 2.53 2.43 2.49 2.23 2.43C2.05 2.37 1.92 2.24 1.84 2.04C1.78 1.94 1.78 1.85 1.84 1.77C1.92 1.69 2.03 1.65 2.17 1.65C3.35 1.65 4.51 1.67 5.65 1.71C6.81 1.73 7.97 1.79 9.13 1.89C9.31 1.91 9.39 2.01 9.37 2.19C9.37 2.35 9.28 2.43 9.1 2.43C8.64 2.45 8.23 2.59 7.87 2.85C7.53 3.11 7.36 3.5 7.36 4.02V10.92H19.27V4.05C19.27 3.71 19.22 3.41 19.12 3.15C19.02 2.87 18.82 2.69 18.52 2.61C18.4 2.57 18.29 2.55 18.19 2.55C17.89 2.53 17.59 2.49 17.29 2.43C17.01 2.37 16.85 2.21 16.81 1.95C16.79 1.87 16.82 1.8 16.9 1.74C16.98 1.68 17.07 1.65 17.17 1.65C18.35 1.65 19.52 1.66 20.68 1.68C21.86 1.7 23.03 1.75 24.19 1.83C24.37 1.85 24.46 1.94 24.46 2.1C24.48 2.24 24.4 2.33 24.22 2.37C23.7 2.47 23.27 2.62 22.93 2.82C22.59 3 22.42 3.4 22.42 4.02V20.58C22.42 20.68 22.44 20.86 22.48 21.12C22.52 21.36 22.57 21.62 22.63 21.9C22.69 22.16 22.76 22.4 22.84 22.62C22.92 22.84 23 22.96 23.08 22.98C23.12 23.02 23.21 23.05 23.35 23.07C23.51 23.07 23.64 23.08 23.74 23.1C23.96 23.12 24.18 23.16 24.4 23.22C24.64 23.26 24.85 23.37 25.03 23.55ZM49.3009 23.97C48.7209 24.01 48.1409 24.02 47.5609 24C46.9809 24 46.3909 24 45.7909 24C45.3509 24 44.8209 24.01 44.2009 24.03C43.5809 24.05 43.0609 24.04 42.6409 24C42.4809 23.98 42.3709 23.93 42.3109 23.85C42.2509 23.77 42.2809 23.68 42.4009 23.58L43.4509 23.04C42.9709 21.78 42.4809 20.52 41.9809 19.26C41.5009 18 41.0309 16.74 40.5709 15.48H34.6609C34.5009 15.84 34.2909 16.37 34.0309 17.07C33.7909 17.75 33.5509 18.46 33.3109 19.2C33.0709 19.92 32.8609 20.61 32.6809 21.27C32.5209 21.91 32.4409 22.36 32.4409 22.62C32.4409 22.96 32.5909 23.19 32.8909 23.31C33.2109 23.41 33.5209 23.48 33.8209 23.52C34.0209 23.56 34.1109 23.66 34.0909 23.82C34.0909 23.96 33.9909 24.03 33.7909 24.03L27.5509 24C27.5509 24 27.5309 23.98 27.4909 23.94C27.4509 23.9 27.4209 23.86 27.4009 23.82C27.3609 23.74 27.3809 23.66 27.4609 23.58C27.5009 23.52 27.5609 23.5 27.6409 23.52C27.7409 23.52 27.8009 23.52 27.8209 23.52C28.0809 23.52 28.3309 23.45 28.5709 23.31C28.8309 23.15 29.0709 22.96 29.2909 22.74C29.5309 22.5 29.7309 22.25 29.8909 21.99C30.0709 21.71 30.2109 21.45 30.3109 21.21C30.8309 19.89 31.3209 18.54 31.7809 17.16C32.2609 15.76 32.7409 14.4 33.2209 13.08C33.9209 11.14 34.6309 9.21 35.3509 7.29C36.0709 5.37 36.8009 3.44 37.5409 1.5C37.5809 1.42 37.6509 1.35 37.7509 1.29C37.8509 1.23 37.9409 1.25 38.0209 1.35C38.3609 1.73 38.6709 2.28 38.9509 3C39.2309 3.72 39.4809 4.39 39.7009 5.01C39.7809 5.13 39.8309 5.25 39.8509 5.37C39.8909 5.49 39.9309 5.59 39.9709 5.67C40.2109 6.31 40.4709 6.96 40.7509 7.62C41.0509 8.28 41.3309 8.96 41.5909 9.66C41.9509 10.62 42.3209 11.62 42.7009 12.66C43.1009 13.7 43.5109 14.75 43.9309 15.81C44.3509 16.87 44.7709 17.91 45.1909 18.93C45.6309 19.93 46.0609 20.88 46.4809 21.78C46.7609 22.36 47.1509 22.77 47.6509 23.01C48.1709 23.25 48.7209 23.39 49.3009 23.43V23.97ZM39.9709 13.89L37.5109 6.66C37.1109 7.92 36.7209 9.13 36.3409 10.29C35.9809 11.43 35.5809 12.63 35.1409 13.89H39.9709ZM74.3116 2.67C74.2516 2.69 74.1816 2.73 74.1016 2.79C74.0416 2.85 73.9816 2.89 73.9216 2.91C73.6016 3.01 73.2816 3.12 72.9616 3.24C72.6616 3.36 72.5116 3.59 72.5116 3.93C72.5116 7.27 72.5216 10.61 72.5416 13.95C72.5816 17.29 72.4716 20.62 72.2116 23.94C72.1916 24.06 72.1116 24.14 71.9716 24.18C71.8516 24.22 71.7316 24.2 71.6116 24.12C70.3316 23.04 69.0616 21.89 67.8016 20.67C66.5616 19.45 65.3316 18.2 64.1116 16.92C62.9116 15.62 61.7216 14.32 60.5416 13.02C59.3616 11.7 58.2016 10.41 57.0616 9.15C56.7216 8.75 56.4316 8.42 56.1916 8.16C55.9516 7.9 55.6516 7.57 55.2916 7.17C55.2316 7.75 55.2016 8.3 55.2016 8.82C55.2016 9.82 55.2216 10.81 55.2616 11.79C55.3016 12.77 55.3416 13.75 55.3816 14.73C55.4216 15.75 55.4616 16.76 55.5016 17.76C55.5416 18.74 55.5616 19.73 55.5616 20.73C55.5616 21.21 55.6016 21.59 55.6816 21.87C55.7616 22.15 55.8616 22.37 55.9816 22.53C56.1216 22.69 56.2816 22.81 56.4616 22.89C56.6416 22.95 56.8216 23 57.0016 23.04C57.2016 23.08 57.4016 23.14 57.6016 23.22C57.8216 23.28 58.0416 23.38 58.2616 23.52C58.4016 23.6 58.4416 23.7 58.3816 23.82C58.3216 23.92 58.2116 23.97 58.0516 23.97L54.2416 23.88C53.7216 23.86 53.1916 23.89 52.6516 23.97C52.1116 24.03 51.6016 24.01 51.1216 23.91C50.9416 23.87 50.8616 23.78 50.8816 23.64C50.9216 23.5 51.0316 23.41 51.2116 23.37L51.6316 23.28C52.0916 23.18 52.4616 22.98 52.7416 22.68C53.0416 22.36 53.1916 21.95 53.1916 21.45V2.55C53.1916 2.39 53.2316 2.26 53.3116 2.16C53.3916 2.04 53.4916 1.92 53.6116 1.8C53.7716 1.68 53.9316 1.68 54.0916 1.8C59.6316 7.46 65.0416 13.2 70.3216 19.02C70.3216 18.86 70.3216 18.71 70.3216 18.57C70.3416 18.41 70.3516 18.25 70.3516 18.09C70.3516 15.89 70.3116 13.7 70.2316 11.52C70.1716 9.34 70.1416 7.15 70.1416 4.95C70.1416 4.49 70.0916 4.13 69.9916 3.87C69.8916 3.61 69.7616 3.42 69.6016 3.3C69.4616 3.16 69.3016 3.07 69.1216 3.03C68.9416 2.99 68.7616 2.95 68.5816 2.91C68.3616 2.87 68.1616 2.83 67.9816 2.79C67.8216 2.75 67.6916 2.67 67.5916 2.55C67.4716 2.47 67.4316 2.38 67.4716 2.28C67.5316 2.18 67.6416 2.13 67.8016 2.13H69.9616C70.6616 2.13 71.3716 2.13 72.0916 2.13C72.8116 2.11 73.5316 2.12 74.2516 2.16L74.3116 2.67ZM98.957 12.54C98.957 14.54 98.647 16.27 98.027 17.73C97.427 19.19 96.567 20.4 95.447 21.36C94.327 22.32 92.977 23.04 91.397 23.52C89.837 23.98 88.097 24.21 86.177 24.21C85.477 24.21 84.777 24.19 84.077 24.15C83.377 24.11 82.687 24.06 82.007 24C81.207 23.94 80.397 23.89 79.577 23.85C78.777 23.79 77.977 23.78 77.177 23.82C76.977 23.82 76.857 23.74 76.817 23.58C76.797 23.42 76.887 23.32 77.087 23.28C77.487 23.2 77.807 23.09 78.047 22.95C78.287 22.81 78.467 22.64 78.587 22.44C78.727 22.22 78.817 21.96 78.857 21.66C78.897 21.34 78.917 20.96 78.917 20.52V3.93C78.917 3.63 78.867 3.39 78.767 3.21C78.687 3.03 78.577 2.89 78.437 2.79C78.297 2.69 78.147 2.62 77.987 2.58C77.827 2.54 77.677 2.51 77.537 2.49C77.297 2.45 77.087 2.41 76.907 2.37C76.727 2.31 76.607 2.2 76.547 2.04C76.487 1.94 76.487 1.85 76.547 1.77C76.627 1.69 76.727 1.65 76.847 1.65C77.207 1.65 77.567 1.66 77.927 1.68C78.287 1.7 78.637 1.72 78.977 1.74C79.417 1.78 79.837 1.81 80.237 1.83C80.657 1.85 81.087 1.86 81.527 1.86C82.067 1.86 82.597 1.85 83.117 1.83C83.637 1.79 84.177 1.75 84.737 1.71C85.257 1.67 85.797 1.65 86.357 1.65C86.917 1.63 87.447 1.62 87.947 1.62C88.647 1.62 89.387 1.73 90.167 1.95C90.967 2.17 91.757 2.48 92.537 2.88C93.337 3.26 94.107 3.72 94.847 4.26C95.587 4.78 96.237 5.36 96.797 6C97.377 6.64 97.857 7.32 98.237 8.04C98.617 8.76 98.837 9.49 98.897 10.23C98.937 10.61 98.957 11.01 98.957 11.43C98.957 11.83 98.957 12.2 98.957 12.54ZM95.837 13.65C95.837 12.03 95.567 10.57 95.027 9.27C94.507 7.97 93.767 6.87 92.807 5.97C91.867 5.05 90.727 4.34 89.387 3.84C88.067 3.34 86.617 3.09 85.037 3.09C84.517 3.09 84.007 3.12 83.507 3.18C83.027 3.24 82.547 3.35 82.067 3.51V19.38C82.067 19.54 82.067 19.75 82.067 20.01C82.087 20.27 82.117 20.53 82.157 20.79C82.197 21.03 82.247 21.26 82.307 21.48C82.387 21.7 82.477 21.85 82.577 21.93C83.037 22.25 83.597 22.47 84.257 22.59C84.937 22.69 85.547 22.74 86.087 22.74C87.527 22.74 88.847 22.55 90.047 22.17C91.247 21.79 92.267 21.23 93.107 20.49C93.967 19.73 94.637 18.78 95.117 17.64C95.597 16.5 95.837 15.17 95.837 13.65ZM123.91 13.53C123.91 15.07 123.64 16.44 123.1 17.64C122.56 18.84 121.82 19.88 120.88 20.76C119.96 21.64 118.88 22.37 117.64 22.95C116.4 23.53 115.08 23.98 113.68 24.3C113.56 24.32 113.41 24.34 113.23 24.36C113.07 24.38 112.89 24.39 112.69 24.39C112.51 24.41 112.32 24.42 112.12 24.42C111.94 24.42 111.79 24.42 111.67 24.42C110.85 24.42 110 24.27 109.12 23.97C108.24 23.67 107.39 23.27 106.57 22.77C105.75 22.25 104.97 21.64 104.23 20.94C103.51 20.24 102.88 19.49 102.34 18.69C101.8 17.87 101.37 17.02 101.05 16.14C100.73 15.26 100.57 14.38 100.57 13.5C100.57 11.74 100.76 10.18 101.14 8.82C101.52 7.46 102.13 6.28 102.97 5.28C103.81 4.28 104.89 3.45 106.21 2.79C107.53 2.11 109.13 1.57 111.01 1.17C111.29 1.11 111.58 1.07 111.88 1.05C112.2 1.01 112.5 0.989999 112.78 0.989999C114.66 0.989999 116.3 1.37 117.7 2.13C119.1 2.89 120.26 3.87 121.18 5.07C122.1 6.27 122.78 7.62 123.22 9.12C123.68 10.6 123.91 12.07 123.91 13.53ZM120.88 13.47C120.88 12.17 120.69 10.88 120.31 9.6C119.93 8.3 119.36 7.14 118.6 6.12C117.86 5.1 116.94 4.27 115.84 3.63C114.76 2.99 113.51 2.67 112.09 2.67C110.75 2.67 109.56 2.92 108.52 3.42C107.5 3.9 106.63 4.57 105.91 5.43C105.21 6.27 104.67 7.26 104.29 8.4C103.93 9.52 103.75 10.72 103.75 12C103.75 13.3 103.94 14.6 104.32 15.9C104.72 17.2 105.3 18.37 106.06 19.41C106.82 20.45 107.75 21.3 108.85 21.96C109.97 22.6 111.24 22.92 112.66 22.92C114 22.92 115.18 22.67 116.2 22.17C117.22 21.65 118.07 20.96 118.75 20.1C119.45 19.24 119.98 18.24 120.34 17.1C120.7 15.94 120.88 14.73 120.88 13.47ZM147.058 23.91C146.598 24.13 146.118 24.3 145.618 24.42C145.118 24.54 144.608 24.6 144.088 24.6C143.248 24.6 142.488 24.44 141.808 24.12C141.148 23.82 140.528 23.42 139.948 22.92C139.388 22.4 138.858 21.82 138.358 21.18C137.878 20.54 137.408 19.89 136.948 19.23C136.488 18.59 136.028 17.97 135.568 17.37C135.128 16.75 134.668 16.23 134.188 15.81C133.828 15.49 133.378 15.29 132.838 15.21C132.318 15.13 131.848 15.09 131.428 15.09C131.268 15.09 131.088 15.09 130.888 15.09C130.708 15.09 130.538 15.1 130.378 15.12V20.7C130.378 20.8 130.388 20.97 130.408 21.21C130.448 21.45 130.498 21.71 130.558 21.99C130.618 22.25 130.678 22.49 130.738 22.71C130.798 22.93 130.858 23.06 130.918 23.1C131.018 23.14 131.148 23.17 131.308 23.19C131.488 23.21 131.628 23.23 131.728 23.25C131.948 23.27 132.168 23.3 132.388 23.34C132.628 23.38 132.838 23.48 133.018 23.64C133.138 23.74 133.168 23.84 133.108 23.94C133.048 24.04 132.938 24.09 132.778 24.09C131.558 24.09 130.338 24.09 129.118 24.09C127.898 24.09 126.678 24.06 125.458 24C125.258 23.98 125.148 23.9 125.128 23.76C125.128 23.6 125.228 23.5 125.428 23.46C125.868 23.38 126.208 23.29 126.448 23.19C126.688 23.09 126.858 22.95 126.958 22.77C127.078 22.59 127.148 22.35 127.168 22.05C127.188 21.73 127.198 21.33 127.198 20.85V4.23C127.198 3.89 127.158 3.62 127.078 3.42C126.998 3.22 126.898 3.08 126.778 3C126.658 2.9 126.528 2.84 126.388 2.82C126.248 2.78 126.108 2.75 125.968 2.73C125.688 2.71 125.448 2.67 125.248 2.61C125.048 2.55 124.918 2.42 124.858 2.22C124.798 2.12 124.798 2.04 124.858 1.98C124.918 1.9 125.018 1.86 125.158 1.86H125.698H127.678C128.018 1.88 128.338 1.89 128.638 1.89C128.938 1.87 129.248 1.86 129.568 1.86C129.748 1.86 129.918 1.86 130.078 1.86C130.258 1.84 130.438 1.83 130.618 1.83H132.208C133.048 1.83 133.868 1.89 134.668 2.01C135.488 2.11 136.238 2.33 136.918 2.67C137.618 2.99 138.218 3.46 138.718 4.08C139.218 4.68 139.588 5.48 139.828 6.48C139.868 6.58 139.888 6.71 139.888 6.87C139.908 7.03 139.918 7.18 139.918 7.32C139.918 7.94 139.818 8.56 139.618 9.18C139.418 9.78 139.158 10.37 138.838 10.95C138.518 11.53 138.148 12.08 137.728 12.6C137.328 13.1 136.908 13.56 136.468 13.98C136.788 14.32 137.118 14.73 137.458 15.21C137.818 15.69 138.178 16.17 138.538 16.65C139.138 17.45 139.758 18.28 140.398 19.14C141.058 19.98 141.738 20.74 142.438 21.42C143.158 22.08 143.888 22.61 144.628 23.01C145.368 23.39 146.118 23.52 146.878 23.4L147.058 23.91ZM136.648 8.85C136.648 8.15 136.548 7.45 136.348 6.75C136.168 6.05 135.888 5.43 135.508 4.89C135.128 4.33 134.648 3.88 134.068 3.54C133.508 3.18 132.848 3 132.088 3C131.508 3 130.948 3.09 130.408 3.27V13.14C131.208 13.26 132.038 13.32 132.898 13.32C133.238 13.32 133.628 13.3 134.068 13.26C134.508 13.22 134.868 13.09 135.148 12.87C135.428 12.65 135.658 12.39 135.838 12.09C136.038 11.77 136.198 11.43 136.318 11.07C136.438 10.71 136.518 10.34 136.558 9.96C136.618 9.58 136.648 9.21 136.648 8.85ZM169.682 23.97C169.102 24.01 168.522 24.02 167.942 24C167.362 24 166.772 24 166.172 24C165.732 24 165.202 24.01 164.582 24.03C163.962 24.05 163.442 24.04 163.022 24C162.862 23.98 162.752 23.93 162.692 23.85C162.632 23.77 162.662 23.68 162.782 23.58L163.832 23.04C163.352 21.78 162.862 20.52 162.362 19.26C161.882 18 161.412 16.74 160.952 15.48H155.042C154.882 15.84 154.672 16.37 154.412 17.07C154.172 17.75 153.932 18.46 153.692 19.2C153.452 19.92 153.242 20.61 153.062 21.27C152.902 21.91 152.822 22.36 152.822 22.62C152.822 22.96 152.972 23.19 153.272 23.31C153.592 23.41 153.902 23.48 154.202 23.52C154.402 23.56 154.492 23.66 154.472 23.82C154.472 23.96 154.372 24.03 154.172 24.03L147.932 24C147.932 24 147.912 23.98 147.872 23.94C147.832 23.9 147.802 23.86 147.782 23.82C147.742 23.74 147.762 23.66 147.842 23.58C147.882 23.52 147.942 23.5 148.022 23.52C148.122 23.52 148.182 23.52 148.202 23.52C148.462 23.52 148.712 23.45 148.952 23.31C149.212 23.15 149.452 22.96 149.672 22.74C149.912 22.5 150.112 22.25 150.272 21.99C150.452 21.71 150.592 21.45 150.692 21.21C151.212 19.89 151.702 18.54 152.162 17.16C152.642 15.76 153.122 14.4 153.602 13.08C154.302 11.14 155.012 9.21 155.732 7.29C156.452 5.37 157.182 3.44 157.922 1.5C157.962 1.42 158.032 1.35 158.132 1.29C158.232 1.23 158.322 1.25 158.402 1.35C158.742 1.73 159.052 2.28 159.332 3C159.612 3.72 159.862 4.39 160.082 5.01C160.162 5.13 160.212 5.25 160.232 5.37C160.272 5.49 160.312 5.59 160.352 5.67C160.592 6.31 160.852 6.96 161.132 7.62C161.432 8.28 161.712 8.96 161.972 9.66C162.332 10.62 162.702 11.62 163.082 12.66C163.482 13.7 163.892 14.75 164.312 15.81C164.732 16.87 165.152 17.91 165.572 18.93C166.012 19.93 166.442 20.88 166.862 21.78C167.142 22.36 167.532 22.77 168.032 23.01C168.552 23.25 169.102 23.39 169.682 23.43V23.97ZM160.352 13.89L157.892 6.66C157.492 7.92 157.102 9.13 156.722 10.29C156.362 11.43 155.962 12.63 155.522 13.89H160.352Z" fill="white"/>
</g>
<defs>
<filter id="filter0_d_186_72" x="0.75" y="-0.00999451" width="175.932" height="31.61" filterUnits="userSpaceOnUse" color-interpolation-filters="sRGB">
<feFlood flood-opacity="0" result="BackgroundImageFix"/>
<feColorMatrix in="SourceAlpha" type="matrix" values="0 0 0 0 0 0 0 0 0 0 0 0 0 0 0 0 0 0 127 0" result="hardAlpha"/>
<feOffset dx="3" dy="3"/>
<feGaussianBlur stdDeviation="2"/>
<feComposite in2="hardAlpha" operator="out"/>
<feColorMatrix type="matrix" values="0 0 0 0 1 0 0 0 0 1 0 0 0 0 1 0 0 0 0.25 0"/>
<feBlend mode="normal" in2="BackgroundImageFix" result="effect1_dropShadow_186_72"/>
<feBlend mode="normal" in="SourceGraphic" in2="effect1_dropShadow_186_72" result="shape"/>
</filter>
</defs>
</svg>
