<svg width="40" height="40" viewBox="0 0 40 40" fill="none" xmlns="http://www.w3.org/2000/svg">
<g clip-path="url(#clip0_194_17)">
<path fill-rule="evenodd" clip-rule="evenodd" d="M4.35655 9.04333C4.54578 8.58646 4.86626 8.19597 5.27744 7.92126C5.68862 7.64654 6.17204 7.49994 6.66655 7.5H23.3332C26.6484 7.5 29.8278 8.81696 32.1721 11.1612C34.5163 13.5054 35.8332 16.6848 35.8332 20C35.8332 23.3152 34.5163 26.4946 32.1721 28.8388C29.8278 31.183 26.6484 32.5 23.3332 32.5H8.33322C7.67018 32.5 7.03429 32.2366 6.56545 31.7678C6.09661 31.2989 5.83322 30.663 5.83322 30C5.83322 29.337 6.09661 28.7011 6.56545 28.2322C7.03429 27.7634 7.67018 27.5 8.33322 27.5H23.3332C25.3223 27.5 27.23 26.7098 28.6365 25.3033C30.043 23.8968 30.8332 21.9891 30.8332 20C30.8332 18.0109 30.043 16.1032 28.6365 14.6967C27.23 13.2902 25.3223 12.5 23.3332 12.5H12.7015L14.2682 14.0667C14.7234 14.5384 14.9751 15.17 14.9691 15.8255C14.9631 16.481 14.6999 17.1079 14.2361 17.5712C13.7724 18.0345 13.1452 18.2971 12.4897 18.3025C11.8342 18.3079 11.2028 18.0556 10.7316 17.6L4.89822 11.7667C4.54886 11.4171 4.31094 10.9718 4.21454 10.4871C4.11813 10.0024 4.16755 9.49998 4.35655 9.04333Z" fill="#FFC700"/>
</g>
<defs>
<clipPath id="clip0_194_17">
<rect width="40" height="40" fill="white"/>
</clipPath>
</defs>
</svg>
