<svg width="40" height="40" viewBox="0 0 40 40" fill="none" xmlns="http://www.w3.org/2000/svg">
<path d="M31.4082 9.09627C29.7316 7.41761 27.5382 6.35271 25.1819 6.07341C22.8256 5.79411 20.444 6.31671 18.4213 7.55687C16.3985 8.79704 14.8527 10.6824 14.0333 12.9088C13.2138 15.1352 13.1685 17.5726 13.9047 19.8279L6.61882 27.1125C6.42194 27.3078 6.26584 27.5403 6.15961 27.7964C6.05337 28.0525 5.99912 28.3272 6.00001 28.6045V32.3893C6.00001 32.9491 6.22243 33.486 6.61833 33.8818C7.01424 34.2776 7.5512 34.5 8.11109 34.5H12.3333C12.6132 34.5 12.8817 34.3888 13.0796 34.1909C13.2776 33.993 13.3888 33.7245 13.3888 33.4446V31.3339H15.4999C15.7798 31.3339 16.0483 31.2227 16.2463 31.0248C16.4442 30.8269 16.5554 30.5585 16.5554 30.2786V28.1679H18.6665C18.8052 28.168 18.9425 28.1408 19.0706 28.0878C19.1987 28.0348 19.3152 27.9571 19.4133 27.8592L20.6747 26.5967C21.7304 26.9401 22.834 27.1142 23.9442 27.1125H23.9574C26.044 27.11 28.083 26.4892 29.8169 25.3285C31.5508 24.1679 32.9017 22.5195 33.699 20.5916C34.4963 18.6637 34.7042 16.5427 34.2965 14.4967C33.8888 12.4507 32.8837 10.5714 31.4082 9.09627ZM32.3885 16.836C32.2447 21.3331 28.4632 24.9965 23.9587 25.0018H23.9442C22.8757 25.0036 21.8166 24.8017 20.8238 24.4068C20.6295 24.3226 20.4145 24.2986 20.2065 24.3382C19.9985 24.3777 19.8071 24.4788 19.6574 24.6285L18.2298 26.0572H15.4999C15.2199 26.0572 14.9514 26.1683 14.7535 26.3663C14.5555 26.5642 14.4443 26.8326 14.4443 27.1125V29.2232H12.3333C12.0533 29.2232 11.7848 29.3344 11.5869 29.5323C11.3889 29.7302 11.2777 29.9987 11.2777 30.2786V32.3893H8.11109V28.6045L15.8733 20.845C16.0229 20.6953 16.1241 20.504 16.1636 20.296C16.2032 20.0881 16.1792 19.873 16.0949 19.6788C15.6987 18.6829 15.4967 17.6203 15.4999 16.5484C15.4999 12.0447 19.1692 8.26386 23.6671 8.12007C24.8225 8.08152 25.9735 8.28057 27.0488 8.70489C28.1241 9.12921 29.1008 9.76976 29.9185 10.5869C30.7361 11.404 31.3772 12.3802 31.8021 13.4552C32.2269 14.5301 32.4266 15.6808 32.3885 16.836ZM28.1664 13.9206C28.1664 14.2337 28.0735 14.5397 27.8995 14.8001C27.7255 15.0604 27.4783 15.2633 27.189 15.3831C26.8996 15.5029 26.5813 15.5343 26.2742 15.4732C25.967 15.4121 25.6849 15.2613 25.4635 15.0399C25.242 14.8185 25.0913 14.5365 25.0302 14.2294C24.9691 13.9223 25.0004 13.604 25.1203 13.3148C25.2401 13.0255 25.443 12.7783 25.7034 12.6043C25.9638 12.4304 26.2699 12.3375 26.583 12.3375C27.003 12.3375 27.4057 12.5043 27.7026 12.8012C27.9995 13.0981 28.1664 13.5007 28.1664 13.9206Z" fill="#BABABA"/>
</svg>
