<svg width="40" height="40" viewBox="0 0 40 40" fill="none" xmlns="http://www.w3.org/2000/svg">
<path d="M26.2339 16.3648L25.5 16.2428V15.5H26.3779L26.2339 16.3648ZM24.5 15V16.0765L23.9321 15.9821L25.111 8.90881L27.4114 9.2926L26.5444 14.5H25H24.5V15ZM27.5319 8.29888L25.2 7.90984V5.54469C25.438 5.58748 25.6703 5.66069 25.8909 5.76303C26.2642 5.93614 26.5952 6.18847 26.8611 6.50246C27.1269 6.81645 27.3212 7.18457 27.4304 7.58124C27.495 7.81579 27.5289 8.05699 27.5319 8.29888ZM14.2388 15.2439C14.404 15.1555 14.5573 15.0462 14.6944 14.919L16.6599 16.2301C16.2929 16.6665 15.8452 17.0303 15.3399 17.3007C14.8344 17.5713 14.2834 17.742 13.7167 17.8054V15.4416C13.8978 15.3986 14.0734 15.3324 14.2388 15.2439ZM12.7167 15.5V17.8333H8.83333V16.6667V16.1667H8.33333H7.16667V15.5H12.7167ZM7.16667 17.1667H7.83333V17.8333H7.16667V17.1667ZM6.66667 18.8333H7.83333V29.5H5.5V17.1667H6.16667V18.3333V18.8333H6.66667ZM5.52785 30.5H7.89181C7.98375 30.8876 8.18165 31.2458 8.46794 31.5321C8.75422 31.8184 9.11238 32.0163 9.5 32.1082V34.4722C8.49049 34.3593 7.54323 33.9072 6.81802 33.182C6.09281 32.4568 5.64069 31.5095 5.52785 30.5ZM10.5 34.5V32.1667H28.4333V34.5H10.5ZM29.4333 34.4722V32.1087C29.7519 32.0335 30.0516 31.8866 30.3082 31.6765C30.5651 31.4662 30.7683 31.2013 30.9049 30.9036L33.2211 31.3668C32.9582 32.1915 32.4616 32.9267 31.7867 33.48C31.1118 34.0333 30.2936 34.3761 29.4333 34.4722ZM33.4444 30.3916L31.1583 29.9344L32.9622 20.915L35.2483 21.3722L33.4444 30.3916ZM35.417 20.3862L33.1001 19.9228C33.0943 19.7716 33.0727 19.6214 33.036 19.4748L32.551 19.596L33.036 19.4748C32.9583 19.1637 32.8125 18.8738 32.6092 18.6259L32.2226 18.943L32.6092 18.6259C32.4059 18.378 32.1501 18.1784 31.8602 18.0413C31.7232 17.9765 31.5802 17.9264 31.4336 17.8917L31.4347 15.528C31.9276 15.5832 32.4091 15.7197 32.8594 15.9329C33.461 16.2177 33.9919 16.6325 34.4139 17.1473C34.8359 17.6621 35.1384 18.2641 35.2996 18.9099C35.4203 19.3933 35.4596 19.8921 35.417 20.3862ZM27.3916 15.5H30.4333V17.8333H25.5V17.2565L26.563 17.4332L27.0561 17.5152L27.1382 17.0221L27.3916 15.5ZM24.5 17.7204C24.3504 17.6493 24.2177 17.5472 24.1106 17.4207C24.0034 17.2942 23.9245 17.1464 23.879 16.9871L24.5 17.0904V17.7204ZM18.9339 8.6617L20.8782 9.95712L17.24 15.4145L15.2982 14.1196L18.9339 8.6617ZM6.16667 16.1667H5.61257C5.66926 16.0471 5.74639 15.937 5.84171 15.8417C5.93703 15.7464 6.04715 15.6693 6.16667 15.6126V16.1667ZM21.4599 9.14304L19.5055 7.84088C20.0295 7.17888 20.686 6.62978 21.4338 6.22961C22.1814 5.82954 23.0018 5.58879 23.8433 5.52031V7.86616C23.3866 7.92633 22.943 8.06853 22.5344 8.2873C22.1256 8.50621 21.7624 8.79659 21.4599 9.14304Z" fill="#BABABA" stroke="#BABABA"/>
<path d="M13.333 16.6667V33.3334V16.6667Z" fill="#BABABA"/>
<path d="M13.333 16.6667V33.3334" stroke="#BABABA" stroke-width="2"/>
</svg>
