<svg width="36" height="36" viewBox="0 0 36 36" fill="none" xmlns="http://www.w3.org/2000/svg">
<path fill-rule="evenodd" clip-rule="evenodd" d="M10.879 4.26841L21.5686 2.58863C24.7892 2.08253 26.3995 1.82949 27.4497 2.72761C28.5 3.62573 28.5 5.25578 28.5 8.51589V16.9994H18.5806L23.2809 11.1241L21.7191 9.87471L15.7191 17.3747L15.2194 17.9994L15.7191 18.6241L21.7191 26.1241L23.2809 24.8747L18.5806 18.9994H28.5V27.4829C28.5 30.743 28.5 32.3731 27.4497 33.2712C26.3995 34.1693 24.7892 33.9163 21.5686 33.4102L21.5686 33.4102L10.8791 31.7304C9.26632 31.477 8.45995 31.3503 7.97998 30.789C7.5 30.2277 7.5 29.4114 7.5 27.7789V8.21991C7.5 6.58739 7.5 5.77113 7.97998 5.20984C8.45995 4.64855 9.26632 4.52184 10.879 4.26841Z" fill="#BABABA"/>
</svg>
