<svg width="40" height="40" viewBox="0 0 40 40" fill="none" xmlns="http://www.w3.org/2000/svg">
<path fill-rule="evenodd" clip-rule="evenodd" d="M20 3.23324e-08C19.363 -6.94676e-05 18.7334 0.111907 18.1538 0.32834C17.5743 0.544773 17.0585 0.860605 16.6412 1.25443C16.2239 1.64826 15.915 2.11088 15.7353 2.61093C15.5557 3.11099 15.5095 3.6368 15.6 4.15273C12.3792 4.93077 9.55237 6.5404 7.54176 8.74122C5.53115 10.942 4.44463 13.616 4.44444 16.3636V30.9091H2.22222C1.63285 30.9091 1.06762 31.1006 0.650874 31.4416C0.234126 31.7826 0 32.2451 0 32.7273C0 33.2095 0.234126 33.6719 0.650874 34.0129C1.06762 34.3539 1.63285 34.5455 2.22222 34.5455H37.7778C38.3671 34.5455 38.9324 34.3539 39.3491 34.0129C39.7659 33.6719 40 33.2095 40 32.7273C40 32.2451 39.7659 31.7826 39.3491 31.4416C38.9324 31.1006 38.3671 30.9091 37.7778 30.9091H35.5556V16.3636C35.5554 13.616 34.4688 10.942 32.4582 8.74122C30.4476 6.5404 27.6208 4.93077 24.4 4.15273C24.4905 3.6368 24.4443 3.11099 24.2647 2.61093C24.085 2.11088 23.7761 1.64826 23.3588 1.25443C22.9415 0.860605 22.4257 0.544773 21.8462 0.32834C21.2666 0.111907 20.637 -6.94676e-05 20 3.23324e-08ZM24.4444 38.1818C24.4444 38.664 24.2103 39.1265 23.7936 39.4675C23.3768 39.8084 22.8116 40 22.2222 40H17.7778C17.1884 40 16.6232 39.8084 16.2064 39.4675C15.7897 39.1265 15.5556 38.664 15.5556 38.1818C15.5556 37.6996 15.7897 37.2371 16.2064 36.8962C16.6232 36.5552 17.1884 36.3636 17.7778 36.3636H22.2222C22.8116 36.3636 23.3768 36.5552 23.7936 36.8962C24.2103 37.2371 24.4444 37.6996 24.4444 38.1818Z" fill="white"/>
</svg>
