<svg width="31" height="31" viewBox="0 0 31 31" fill="none" xmlns="http://www.w3.org/2000/svg">
<g clip-path="url(#clip0_543_656)">
<path d="M26.1369 7.34443C26.6949 5.80089 25.1991 4.30514 23.6556 4.86443L4.7908 11.687C3.24209 12.2476 3.05479 14.3608 4.4795 15.1861L10.5013 18.6723L15.8785 13.2951C16.1221 13.0599 16.4483 12.9297 16.787 12.9326C17.1257 12.9355 17.4497 13.0714 17.6891 13.3109C17.9286 13.5504 18.0645 13.8743 18.0674 14.213C18.0704 14.5517 17.9402 14.8779 17.7049 15.1216L12.3277 20.4988L15.8152 26.5205C16.6393 27.9452 18.7524 27.7566 19.313 26.2092L26.1369 7.34443Z" fill="#B9B9B9"/>
</g>
<defs>
<clipPath id="clip0_543_656">
<rect width="31" height="31" fill="white"/>
</clipPath>
</defs>
</svg>
