<svg width="29" height="29" viewBox="0 0 29 29" fill="none" xmlns="http://www.w3.org/2000/svg">
<g id="Setting_fill">
<path id="Subtract" fill-rule="evenodd" clip-rule="evenodd" d="M16.7715 2.76646C16.9756 3.00489 17.0108 3.35718 17.0813 4.06174C17.2152 5.40126 17.2822 6.07102 17.6821 6.33272C17.7866 6.40109 17.9029 6.44929 18.0252 6.47482C18.493 6.57256 19.014 6.14633 20.0558 5.29387C20.6039 4.8455 20.8779 4.62131 21.1907 4.597C21.2755 4.59041 21.3608 4.59466 21.4445 4.60965C21.7534 4.66498 22.0037 4.91532 22.5044 5.41599L23.584 6.4956C24.0847 6.99629 24.3351 7.24664 24.3904 7.55556C24.4054 7.63925 24.4096 7.72451 24.403 7.80928C24.3787 8.12217 24.1546 8.39618 23.7062 8.9442L23.7062 8.94421C22.8537 9.98613 22.4274 10.5071 22.5252 10.9749C22.5507 11.0971 22.5989 11.2135 22.6673 11.318C22.929 11.7179 23.5988 11.7849 24.9383 11.9188C25.6429 11.9893 25.9952 12.0245 26.2336 12.2286C26.2982 12.2839 26.3555 12.3472 26.4041 12.4169C26.5834 12.6745 26.5834 13.0285 26.5834 13.7366V15.2635C26.5834 15.9715 26.5834 16.3255 26.4042 16.583C26.3555 16.6528 26.2982 16.7162 26.2336 16.7715C25.9951 16.9755 25.6429 17.0107 24.9384 17.0812C23.5992 17.2151 22.9296 17.2821 22.6679 17.6818C22.5994 17.7864 22.5511 17.9029 22.5256 18.0253C22.428 18.493 22.8541 19.0138 23.7063 20.0554C24.1546 20.6033 24.3787 20.8772 24.4031 21.19C24.4097 21.2749 24.4054 21.3603 24.3904 21.4441C24.3351 21.7529 24.0848 22.0032 23.5842 22.5037L22.5045 23.5835C22.0038 24.0842 21.7535 24.3345 21.4446 24.3898C21.3609 24.4048 21.2756 24.4091 21.1908 24.4025C20.8779 24.3782 20.6039 24.154 20.0559 23.7056L20.0559 23.7056C19.014 22.8531 18.4931 22.4269 18.0252 22.5246C17.903 22.5502 17.7866 22.5984 17.6822 22.6668C17.2822 22.9284 17.2153 23.5983 17.0813 24.938C17.0108 25.6428 16.9756 25.9952 16.7714 26.2337C16.7162 26.2982 16.653 26.3554 16.5833 26.4039C16.3257 26.5833 15.9715 26.5833 15.2633 26.5833H13.7367C13.0286 26.5833 12.6746 26.5833 12.417 26.404C12.3472 26.3554 12.2839 26.2982 12.2287 26.2336C12.0246 25.9951 11.9894 25.6428 11.9189 24.9383C11.7849 23.5987 11.718 22.9289 11.318 22.6672C11.2136 22.5989 11.0972 22.5507 10.975 22.5251C10.5072 22.4274 9.9862 22.8536 8.94426 23.7061C8.39621 24.1545 8.12219 24.3787 7.80928 24.403C7.72453 24.4096 7.63928 24.4054 7.5556 24.3904C7.24667 24.3351 6.99631 24.0847 6.49561 23.584L5.41604 22.5044C4.91534 22.0037 4.66499 21.7534 4.60967 21.4445C4.59469 21.3608 4.59043 21.2755 4.59702 21.1907C4.62132 20.8779 4.84552 20.6038 5.29392 20.0558C6.14639 19.0139 6.57263 18.4929 6.47489 18.0251C6.44936 17.9029 6.40116 17.7865 6.3328 17.682C6.0711 17.2821 5.40134 17.2151 4.06182 17.0812H4.06181C3.35725 17.0107 3.00497 16.9755 2.76654 16.7714C2.70194 16.7162 2.64465 16.6529 2.59607 16.5831C2.41675 16.3255 2.41675 15.9715 2.41675 15.2634L2.41675 13.7368C2.41675 13.0285 2.41675 12.6744 2.59614 12.4168C2.64468 12.3471 2.70191 12.2839 2.76644 12.2287C3.0049 12.0245 3.35725 11.9893 4.06195 11.9188H4.06196C5.40176 11.7848 6.07166 11.7178 6.33335 11.3178C6.40163 11.2134 6.44978 11.0972 6.47531 10.9751C6.57316 10.5071 6.14681 9.98604 5.29413 8.94387C4.84559 8.39566 4.62132 8.12155 4.59706 7.80856C4.5905 7.72391 4.59475 7.63876 4.6097 7.55518C4.66498 7.24616 4.9154 6.99574 5.41624 6.4949L6.49566 5.41548C6.99637 4.91477 7.24672 4.66442 7.55565 4.6091C7.63933 4.59412 7.72458 4.58986 7.80934 4.59645C8.12224 4.62075 8.39629 4.84497 8.9444 5.29343C9.98622 6.14582 10.5071 6.57202 10.9749 6.47439C11.0972 6.44885 11.2137 6.4006 11.3183 6.33215C11.718 6.07044 11.785 5.40082 11.9189 4.06158C11.9894 3.35717 12.0246 3.00496 12.2286 2.76655C12.2839 2.70188 12.3473 2.64454 12.4171 2.59592C12.6746 2.41667 13.0286 2.41667 13.7365 2.41667H15.2635C15.9716 2.41667 16.3256 2.41667 16.5831 2.59599C16.6529 2.64457 16.7162 2.70186 16.7715 2.76646ZM14.5001 19.3333C17.1695 19.3333 19.3334 17.1694 19.3334 14.5C19.3334 11.8306 17.1695 9.66667 14.5001 9.66667C11.8307 9.66667 9.66675 11.8306 9.66675 14.5C9.66675 17.1694 11.8307 19.3333 14.5001 19.3333Z" fill="#FFC700"/>
</g>
</svg>
