<svg width="40" height="40" viewBox="0 0 40 40" fill="none" xmlns="http://www.w3.org/2000/svg">
<path d="M16.667 25L16.667 20" stroke="#B9B9B9" stroke-width="3" stroke-linecap="round"/>
<path d="M23.333 25L23.333 20" stroke="#B9B9B9" stroke-width="3" stroke-linecap="round"/>
<path d="M5 11.6667H35H34C32.1144 11.6667 31.1716 11.6667 30.5858 12.2525C30 12.8382 30 13.7811 30 15.6667V29.3333C30 31.219 30 32.1618 29.4142 32.7476C28.8284 33.3333 27.8856 33.3333 26 33.3333H14C12.1144 33.3333 11.1716 33.3333 10.5858 32.7476C10 32.1618 10 31.219 10 29.3333V15.6667C10 13.7811 10 12.8382 9.41421 12.2525C8.82843 11.6667 7.88562 11.6667 6 11.6667H5Z" stroke="#B9B9B9" stroke-width="3" stroke-linecap="round"/>
<path d="M16.7799 5.61765C16.9698 5.44046 17.3883 5.28388 17.9705 5.17221C18.5526 5.06053 19.2659 5 19.9997 5C20.7335 5 21.4467 5.06053 22.0289 5.17221C22.611 5.28388 23.0295 5.44046 23.2194 5.61765" stroke="#B9B9B9" stroke-width="3" stroke-linecap="round"/>
</svg>
